<svg width="45" height="44" viewBox="0 0 45 44" fill="none" xmlns="http://www.w3.org/2000/svg">
<g opacity="0.5">
<path d="M20.9261 33.7931L11.3048 43.2448C11.1227 43.4238 10.9066 43.5659 10.6686 43.6628C10.4306 43.7597 10.1756 43.8095 9.91797 43.8095C9.66038 43.8095 9.40532 43.7597 9.16736 43.6628C8.9294 43.5659 8.71321 43.4238 8.53115 43.2448L0.580351 35.4509C0.39665 35.2729 0.250788 35.0607 0.151228 34.8269C0.0516718 34.593 0.000402217 34.342 0.000402198 34.0885C0.000402179 33.835 0.0516717 33.584 0.151228 33.3502C0.250787 33.1163 0.39665 32.9042 0.580351 32.7261L20.9261 12.7389C21.1073 12.5588 21.3231 12.4158 21.5609 12.3183C21.7988 12.2207 22.054 12.1704 22.3117 12.1704C22.5695 12.1704 22.8247 12.2207 23.0625 12.3183C23.3004 12.4158 23.5161 12.5588 23.6973 12.7389L44.0431 32.7261C44.2268 32.9042 44.3727 33.1163 44.4722 33.3501C44.5718 33.584 44.623 33.835 44.623 34.0885C44.623 34.342 44.5718 34.593 44.4722 34.8269C44.3727 35.0607 44.2268 35.2729 44.0431 35.4509L36.0947 43.2472C35.9127 43.4262 35.6965 43.5683 35.4585 43.6651C35.2206 43.762 34.9655 43.8119 34.7079 43.8119C34.4503 43.8119 34.1953 43.762 33.9573 43.6651C33.7193 43.5683 33.5031 43.4262 33.3211 43.2472L23.6973 33.7931C23.3297 33.4322 22.8314 33.2296 22.3117 33.2296C21.7921 33.2296 21.2937 33.4322 20.9261 33.7931Z" fill="#EDFAFB"/>
<path d="M20.9261 33.7931L11.3048 43.2448C11.1227 43.4238 10.9066 43.5659 10.6686 43.6628C10.4306 43.7597 10.1756 43.8095 9.91797 43.8095C9.66038 43.8095 9.40532 43.7597 9.16736 43.6628C8.9294 43.5659 8.71321 43.4238 8.53115 43.2448L0.580351 35.4509C0.39665 35.2729 0.250788 35.0607 0.151228 34.8269C0.0516718 34.593 0.000402217 34.342 0.000402198 34.0885C0.000402179 33.835 0.0516717 33.584 0.151228 33.3502C0.250787 33.1163 0.39665 32.9042 0.580351 32.7261L20.9261 12.7389C21.1073 12.5588 21.3231 12.4158 21.5609 12.3183C21.7988 12.2207 22.054 12.1704 22.3117 12.1704C22.5695 12.1704 22.8247 12.2207 23.0625 12.3183C23.3004 12.4158 23.5161 12.5588 23.6973 12.7389L44.0431 32.7261C44.2268 32.9042 44.3727 33.1163 44.4722 33.3501C44.5718 33.584 44.623 33.835 44.623 34.0885C44.623 34.342 44.5718 34.593 44.4722 34.8269C44.3727 35.0607 44.2268 35.2729 44.0431 35.4509L36.0947 43.2472C35.9127 43.4262 35.6965 43.5683 35.4585 43.6651C35.2206 43.762 34.9655 43.8119 34.7079 43.8119C34.4503 43.8119 34.1953 43.762 33.9573 43.6651C33.7193 43.5683 33.5031 43.4262 33.3211 43.2472L23.6973 33.7931C23.3297 33.4322 22.8314 33.2296 22.3117 33.2296C21.7921 33.2296 21.2937 33.4322 20.9261 33.7931Z" fill="#EDFAFB"/>
</g>
<path d="M20.9261 22.9876L11.3048 32.6817C11.1227 32.8654 10.9066 33.011 10.6686 33.1104C10.4306 33.2098 10.1756 33.2609 9.91798 33.2609C9.66038 33.2609 9.40532 33.2098 9.16736 33.1104C8.9294 33.011 8.71321 32.8654 8.53115 32.6817L0.580351 24.688C0.39665 24.5054 0.250788 24.2878 0.151228 24.0479C0.0516718 23.8081 0.00040226 23.5507 0.00040224 23.2907C0.000402221 23.0306 0.0516717 22.7732 0.151228 22.5334C0.250787 22.2935 0.39665 22.0759 0.580351 21.8933L20.9261 1.39364C21.1073 1.20892 21.3231 1.06227 21.5609 0.962178C21.7988 0.862087 22.054 0.810549 22.3117 0.810549C22.5695 0.810549 22.8247 0.862087 23.0625 0.962178C23.3004 1.06227 23.5161 1.20892 23.6973 1.39364L44.0431 21.8933C44.2268 22.0759 44.3727 22.2935 44.4722 22.5334C44.5718 22.7732 44.623 23.0306 44.623 23.2906C44.623 23.5506 44.5718 23.8081 44.4722 24.0479C44.3727 24.2878 44.2268 24.5054 44.0431 24.688L36.0947 32.6842C35.9127 32.8678 35.6965 33.0135 35.4585 33.1128C35.2206 33.2122 34.9655 33.2634 34.7079 33.2634C34.4503 33.2634 34.1953 33.2122 33.9573 33.1128C33.7193 33.0135 33.5031 32.8678 33.3211 32.6842L23.6973 22.9876C23.3297 22.6176 22.8314 22.4097 22.3117 22.4097C21.7921 22.4097 21.2937 22.6176 20.9261 22.9876Z" fill="#EDFAFB"/>
<path d="M20.9261 22.9876L11.3048 32.6817C11.1227 32.8654 10.9066 33.011 10.6686 33.1104C10.4306 33.2098 10.1756 33.2609 9.91798 33.2609C9.66038 33.2609 9.40532 33.2098 9.16736 33.1104C8.9294 33.011 8.71321 32.8654 8.53115 32.6817L0.580351 24.688C0.39665 24.5054 0.250788 24.2878 0.151228 24.0479C0.0516718 23.8081 0.00040226 23.5507 0.00040224 23.2907C0.000402221 23.0306 0.0516717 22.7732 0.151228 22.5334C0.250787 22.2935 0.39665 22.0759 0.580351 21.8933L20.9261 1.39364C21.1073 1.20892 21.3231 1.06227 21.5609 0.962178C21.7988 0.862087 22.054 0.810549 22.3117 0.810549C22.5695 0.810549 22.8247 0.862087 23.0625 0.962178C23.3004 1.06227 23.5161 1.20892 23.6973 1.39364L44.0431 21.8933C44.2268 22.0759 44.3727 22.2935 44.4722 22.5334C44.5718 22.7732 44.623 23.0306 44.623 23.2906C44.623 23.5506 44.5718 23.8081 44.4722 24.0479C44.3727 24.2878 44.2268 24.5054 44.0431 24.688L36.0947 32.6842C35.9127 32.8678 35.6965 33.0135 35.4585 33.1128C35.2206 33.2122 34.9655 33.2634 34.7079 33.2634C34.4503 33.2634 34.1953 33.2122 33.9573 33.1128C33.7193 33.0135 33.5031 32.8678 33.3211 32.6842L23.6973 22.9876C23.3297 22.6176 22.8314 22.4097 22.3117 22.4097C21.7921 22.4097 21.2937 22.6176 20.9261 22.9876Z" fill="#EDFAFB"/>
</svg>
