<svg width="1920" height="448" viewBox="0 0 1920 448" fill="none" xmlns="http://www.w3.org/2000/svg">
<path d="M882.744 -124.795L346.293 415.578C336.142 425.813 324.088 433.932 310.82 439.472C297.553 445.012 283.331 447.863 268.969 447.863C254.606 447.863 240.385 445.012 227.117 439.472C213.849 433.932 201.795 425.813 191.644 415.578L-251.664 -30.0146C-261.907 -40.1933 -270.039 -52.3204 -275.59 -65.6915C-281.141 -79.0626 -284 -93.4112 -284 -107.904C-284 -122.398 -281.141 -136.746 -275.59 -150.118C-270.039 -163.489 -261.907 -175.616 -251.664 -185.794L882.744 -1328.5C892.846 -1338.79 904.876 -1346.97 918.138 -1352.55C931.4 -1358.13 945.628 -1361 960 -1361C974.372 -1361 988.601 -1358.13 1001.86 -1352.55C1015.12 -1346.97 1027.15 -1338.79 1037.26 -1328.5L2171.66 -185.794C2181.91 -175.615 2190.04 -163.489 2195.59 -150.117C2201.14 -136.746 2204 -122.397 2204 -107.904C2204 -93.4111 2201.14 -79.0625 2195.59 -65.6914C2190.04 -52.3203 2181.91 -40.1932 2171.66 -30.0145L1728.49 415.715C1718.34 425.95 1706.29 434.069 1693.02 439.609C1679.75 445.149 1665.53 448 1651.17 448C1636.8 448 1622.58 445.149 1609.32 439.609C1596.05 434.069 1583.99 425.95 1573.84 415.715L1037.26 -124.795C1016.76 -145.424 988.973 -157.012 960 -157.012C931.027 -157.012 903.239 -145.424 882.744 -124.795Z" fill="#7EE49C"/>
</svg>
